<?xml version="1.0" encoding="UTF-8" standalone="no" ?>
<!DOCTYPE svg PUBLIC "-//W3C//DTD SVG 1.1//EN" "http://www.w3.org/Graphics/SVG/1.1/DTD/svg11.dtd">
<svg xmlns="http://www.w3.org/2000/svg" xmlns:xlink="http://www.w3.org/1999/xlink" version="1.1" width="500" height="150" viewBox="82.86 132.86 500 150" xml:space="preserve">
<desc>Created with Fabric.js 5.2.4</desc>
<defs>
</defs>
<rect x="0" y="0" width="100%" height="100%" fill="transparent"></rect>
<g transform="matrix(1 0 0 1 250 75)" id="c95a87ed-e434-4311-ba9f-434492ee8b90"  >
<rect style="stroke: none; stroke-width: 1; stroke-dasharray: none; stroke-linecap: butt; stroke-dashoffset: 0; stroke-linejoin: miter; stroke-miterlimit: 4; fill: rgb(255,255,255); fill-rule: nonzero; opacity: 1; visibility: hidden;" vector-effect="non-scaling-stroke"  x="-250" y="-75" rx="0" ry="0" width="500" height="150" />
</g>
<g transform="matrix(Infinity NaN NaN Infinity 0 0)" id="e04ad4e3-e60e-4fb3-93fa-39103b11e6ce"  >
</g>
<g transform="matrix(0.48 0 0 0.22 336.34 191.73)"  >
<g style="" vector-effect="non-scaling-stroke"   >
		<g transform="matrix(0.13 0 0 -0.13 -35.01 -103.18)"  >
<path style="stroke: none; stroke-width: 1; stroke-dasharray: none; stroke-linecap: butt; stroke-dashoffset: 0; stroke-linejoin: miter; stroke-miterlimit: 4; fill: rgb(0,0,0); fill-rule: nonzero; opacity: 1;" vector-effect="non-scaling-stroke"  transform=" translate(-1889.69, -2476.43)" d="M 1805 2540 C 1795 2525 1807 2512 1844 2500 C 1862 2494 1882 2479 1889 2467 C 1902 2445 1969 2396 1977 2403 C 1985 2412 1928 2485 1904 2498 C 1891 2505 1880 2517 1880 2524 C 1880 2548 1818 2561 1805 2540 z" stroke-linecap="round" />
</g>
		<g transform="matrix(0.13 0 0 -0.13 17.3 -110.32)"  >
<path style="stroke: none; stroke-width: 1; stroke-dasharray: none; stroke-linecap: butt; stroke-dashoffset: 0; stroke-linejoin: miter; stroke-miterlimit: 4; fill: rgb(0,0,0); fill-rule: nonzero; opacity: 1;" vector-effect="non-scaling-stroke"  transform=" translate(-2282.09, -2530)" d="M 2255 2530 C 2258 2525 2272 2520 2286 2520 C 2299 2520 2310 2525 2310 2530 C 2310 2536 2296 2540 2279 2540 C 2262 2540 2251 2536 2255 2530 z" stroke-linecap="round" />
</g>
		<g transform="matrix(0.13 0 0 -0.13 -1.31 -62.02)"  >
<path style="stroke: none; stroke-width: 1; stroke-dasharray: none; stroke-linecap: butt; stroke-dashoffset: 0; stroke-linejoin: miter; stroke-miterlimit: 4; fill: rgb(0,0,0); fill-rule: nonzero; opacity: 1;" vector-effect="non-scaling-stroke"  transform=" translate(-2142.5, -2167.73)" d="M 2115 2420 C 2111 2414 2122 2388 2138 2362 C 2161 2324 2177 2311 2216 2297 C 2278 2274 2297 2256 2311 2209 C 2329 2150 2315 2105 2260 2048 L 2211 1998 L 2136 2002 C 2066 2005 2057 2008 2027 2038 C 1997 2068 1995 2075 1995 2139 C 1995 2206 1994 2209 1957 2245 C 1904 2296 1895 2284 1895 2161 C 1895 2066 1896 2062 1927 2024 C 1973 1968 1980 1962 2025 1932 C 2059 1909 2076 1906 2140 1905 C 2208 1905 2219 1908 2260 1937 C 2357 2005 2390 2061 2390 2157 C 2390 2233 2371 2293 2335 2332 C 2272 2400 2136 2454 2115 2420 z" stroke-linecap="round" />
</g>
		<g transform="matrix(0.13 0 0 -0.13 -60.22 -48.06)"  >
<path style="stroke: none; stroke-width: 1; stroke-dasharray: none; stroke-linecap: butt; stroke-dashoffset: 0; stroke-linejoin: miter; stroke-miterlimit: 4; fill: rgb(0,0,0); fill-rule: nonzero; opacity: 1;" vector-effect="non-scaling-stroke"  transform=" translate(-1700.64, -2063)" d="M 1748 2361 C 1736 2340 1714 2318 1698 2312 C 1678 2305 1668 2293 1664 2271 C 1660 2254 1651 2240 1644 2240 C 1622 2240 1611 2206 1599 2101 C 1583 1967 1599 1835 1638 1772 C 1653 1748 1670 1727 1675 1726 C 1681 1726 1688 1753 1691 1787 C 1695 1833 1703 1856 1723 1880 C 1738 1897 1750 1916 1750 1921 C 1750 1927 1764 1944 1781 1960 C 1808 1985 1812 1993 1806 2023 C 1803 2042 1791 2065 1781 2074 C 1767 2087 1761 2112 1755 2178 C 1751 2226 1744 2273 1738 2283 C 1730 2299 1732 2301 1761 2298 C 1789 2296 1796 2299 1804 2321 C 1815 2354 1804 2400 1785 2400 C 1777 2400 1761 2383 1748 2361 z M 1690 2144 C 1690 2114 1686 2090 1680 2090 C 1674 2090 1670 2117 1670 2151 C 1670 2188 1674 2209 1680 2205 C 1686 2202 1690 2174 1690 2144 z" stroke-linecap="round" />
</g>
		<g transform="matrix(0.13 0 0 -0.13 16.63 -20.13)"  >
<path style="stroke: none; stroke-width: 1; stroke-dasharray: none; stroke-linecap: butt; stroke-dashoffset: 0; stroke-linejoin: miter; stroke-miterlimit: 4; fill: rgb(0,0,0); fill-rule: nonzero; opacity: 1;" vector-effect="non-scaling-stroke"  transform=" translate(-2277, -1853.56)" d="M 2697 2310 C 2687 2285 2670 2179 2670 2143 C 2670 2117 2665 2108 2646 2100 C 2627 2093 2619 2079 2609 2036 C 2598 1987 2594 1980 2573 1980 C 2551 1980 2550 1982 2561 2003 C 2575 2029 2582 2221 2569 2241 C 2563 2252 2556 2252 2543 2244 C 2530 2236 2525 2219 2524 2189 C 2522 2058 2521 2052 2490 2020 C 2474 2003 2458 1979 2454 1965 C 2451 1952 2439 1938 2428 1934 C 2418 1931 2404 1917 2398 1904 C 2392 1891 2381 1880 2374 1880 C 2367 1880 2346 1867 2328 1851 C 2271 1801 2106 1788 2013 1825 C 1996 1833 1971 1836 1958 1833 C 1931 1826 1900 1801 1900 1787 C 1900 1781 1891 1766 1879 1754 C 1857 1731 1845 1661 1837 1516 C 1833 1446 1835 1435 1855 1412 C 1875 1388 1880 1387 1904 1398 C 1930 1410 1930 1410 1924 1490 C 1914 1602 1924 1615 2024 1623 C 2065 1626 2129 1635 2167 1643 C 2204 1652 2261 1664 2293 1670 C 2325 1677 2354 1688 2356 1695 C 2359 1702 2381 1715 2404 1724 C 2428 1733 2456 1750 2466 1762 C 2477 1773 2495 1786 2508 1791 C 2520 1796 2535 1811 2540 1824 C 2545 1837 2558 1851 2569 1855 C 2580 1858 2592 1871 2596 1883 C 2600 1895 2615 1920 2631 1937 C 2646 1955 2662 1987 2666 2007 C 2670 2028 2683 2058 2694 2073 C 2710 2095 2716 2120 2718 2178 C 2722 2255 2708 2339 2697 2310 z M 2540 1940 C 2540 1929 2533 1920 2525 1920 C 2507 1920 2506 1932 2522 1948 C 2538 1964 2540 1963 2540 1940 z" stroke-linecap="round" />
</g>
		<g transform="matrix(0.13 0 0 -0.13 -197.26 92.16)"  >
<path style="stroke: none; stroke-width: 1; stroke-dasharray: none; stroke-linecap: butt; stroke-dashoffset: 0; stroke-linejoin: miter; stroke-miterlimit: 4; fill: rgb(0,0,0); fill-rule: nonzero; opacity: 1;" vector-effect="non-scaling-stroke"  transform=" translate(-672.82, -1011.39)" d="M 491 1151 C 475 1135 473 1121 478 1042 C 480 990 478 939 472 922 C 463 897 465 889 480 875 C 506 851 538 864 548 903 C 560 949 585 949 609 902 C 642 838 708 839 730 904 C 746 952 773 952 797 903 C 817 861 836 853 865 874 C 882 886 883 891 871 928 C 861 957 859 993 864 1051 C 870 1120 868 1136 854 1151 C 832 1175 821 1174 788 1147 C 770 1132 757 1106 745 1060 C 727 988 711 970 664 970 C 624 970 616 980 596 1060 C 584 1106 571 1131 552 1147 C 519 1174 515 1175 491 1151 z" stroke-linecap="round" />
</g>
		<g transform="matrix(0.13 0 0 -0.13 -135.96 92.07)"  >
<path style="stroke: none; stroke-width: 1; stroke-dasharray: none; stroke-linecap: butt; stroke-dashoffset: 0; stroke-linejoin: miter; stroke-miterlimit: 4; fill: rgb(0,0,0); fill-rule: nonzero; opacity: 1;" vector-effect="non-scaling-stroke"  transform=" translate(-1132.63, -1012.04)" d="M 1038 1159 C 1022 1153 1010 1145 1009 1142 C 1009 1138 1008 1077 1007 1007 C 1005 913 1008 875 1018 868 C 1026 861 1056 859 1098 863 C 1135 867 1182 866 1202 861 C 1230 854 1242 856 1251 866 C 1272 891 1251 901 1186 894 C 1130 888 1120 890 1101 909 C 1060 950 1088 996 1149 986 C 1191 980 1215 991 1207 1014 C 1202 1026 1187 1030 1152 1030 C 1078 1030 1055 1069 1106 1109 C 1128 1126 1141 1129 1190 1123 C 1250 1117 1265 1125 1254 1155 C 1249 1168 1240 1170 1206 1164 C 1161 1155 1128 1155 1090 1164 C 1076 1167 1053 1164 1038 1159 z" stroke-linecap="round" />
</g>
		<g transform="matrix(0.13 0 0 -0.13 -79.13 91.98)"  >
<path style="stroke: none; stroke-width: 1; stroke-dasharray: none; stroke-linecap: butt; stroke-dashoffset: 0; stroke-linejoin: miter; stroke-miterlimit: 4; fill: rgb(0,0,0); fill-rule: nonzero; opacity: 1;" vector-effect="non-scaling-stroke"  transform=" translate(-1558.86, -1012.7)" d="M 1426 1149 C 1413 1130 1410 1101 1410 1004 C 1410 848 1407 851 1553 859 C 1650 864 1664 867 1680 888 C 1712 928 1718 1067 1689 1122 C 1677 1145 1629 1158 1529 1166 C 1446 1172 1442 1172 1426 1149 z M 1600 1105 C 1616 1097 1634 1081 1640 1069 C 1653 1046 1656 983 1645 951 C 1631 906 1537 884 1492 916 C 1473 929 1470 940 1470 1004 C 1470 1061 1474 1080 1488 1092 C 1523 1123 1558 1127 1600 1105 z" stroke-linecap="round" />
</g>
		<g transform="matrix(0.13 0 0 -0.13 4.15 91.97)"  >
<path style="stroke: none; stroke-width: 1; stroke-dasharray: none; stroke-linecap: butt; stroke-dashoffset: 0; stroke-linejoin: miter; stroke-miterlimit: 4; fill: rgb(0,0,0); fill-rule: nonzero; opacity: 1;" vector-effect="non-scaling-stroke"  transform=" translate(-2183.44, -1012.8)" d="M 2084 1160 C 2072 1155 2059 1146 2055 1140 C 2045 1124 2044 887 2054 872 C 2067 851 2099 859 2117 888 C 2141 927 2160 940 2192 940 C 2233 940 2294 974 2308 1005 C 2332 1057 2318 1130 2281 1150 C 2255 1164 2112 1171 2084 1160 z M 2225 1110 C 2255 1098 2264 1079 2256 1045 C 2240 984 2165 957 2136 1003 C 2109 1045 2106 1076 2129 1099 C 2152 1122 2184 1126 2225 1110 z" stroke-linecap="round" />
</g>
		<g transform="matrix(0.13 0 0 -0.13 63.59 92.06)"  >
<path style="stroke: none; stroke-width: 1; stroke-dasharray: none; stroke-linecap: butt; stroke-dashoffset: 0; stroke-linejoin: miter; stroke-miterlimit: 4; fill: rgb(0,0,0); fill-rule: nonzero; opacity: 1;" vector-effect="non-scaling-stroke"  transform=" translate(-2629.23, -1012.15)" d="M 2557 1160 C 2518 1148 2502 1133 2479 1089 C 2450 1030 2453 962 2489 912 C 2505 890 2524 868 2531 864 C 2538 860 2583 857 2632 858 C 2760 860 2801 896 2799 1007 C 2799 1081 2781 1120 2738 1143 C 2695 1164 2599 1174 2557 1160 z M 2700 1093 C 2783 1019 2723 879 2617 897 C 2548 908 2512 978 2539 1050 C 2566 1124 2643 1144 2700 1093 z" stroke-linecap="round" />
</g>
		<g transform="matrix(0.13 0 0 -0.13 151.63 91.68)"  >
<path style="stroke: none; stroke-width: 1; stroke-dasharray: none; stroke-linecap: butt; stroke-dashoffset: 0; stroke-linejoin: miter; stroke-miterlimit: 4; fill: rgb(0,0,0); fill-rule: nonzero; opacity: 1;" vector-effect="non-scaling-stroke"  transform=" translate(-3289.56, -1015)" d="M 3150 1160 C 3138 1153 3134 1121 3129 1023 C 3123 889 3129 860 3159 860 C 3190 860 3205 886 3191 916 C 3169 966 3186 1017 3221 1006 C 3229 1004 3247 999 3262 996 C 3283 991 3292 980 3305 940 C 3323 887 3356 860 3402 860 C 3445 860 3448 869 3451 1007 C 3455 1148 3451 1164 3409 1158 C 3386 1155 3385 1152 3388 1093 C 3390 1039 3388 1030 3370 1020 C 3358 1014 3337 1010 3323 1012 C 3303 1014 3294 1024 3283 1055 C 3268 1099 3205 1170 3180 1170 C 3172 1170 3158 1165 3150 1160 z" stroke-linecap="round" />
</g>
		<g transform="matrix(0.13 0 0 -0.13 209.45 91.94)"  >
<path style="stroke: none; stroke-width: 1; stroke-dasharray: none; stroke-linecap: butt; stroke-dashoffset: 0; stroke-linejoin: miter; stroke-miterlimit: 4; fill: rgb(0,0,0); fill-rule: nonzero; opacity: 1;" vector-effect="non-scaling-stroke"  transform=" translate(-3723.18, -1013)" d="M 3615 1162 C 3599 1145 3613 1120 3645 1110 C 3694 1094 3703 1072 3699 967 C 3696 890 3697 876 3713 866 C 3725 858 3735 858 3748 866 C 3763 876 3765 890 3761 974 C 3758 1056 3760 1074 3775 1090 C 3785 1101 3799 1110 3805 1110 C 3812 1110 3823 1117 3830 1125 C 3854 1154 3826 1165 3719 1166 C 3665 1166 3618 1164 3615 1162 z" stroke-linecap="round" />
</g>
		<g transform="matrix(0.13 0 0 -0.13 -36.36 92.34)"  >
<path style="stroke: none; stroke-width: 1; stroke-dasharray: none; stroke-linecap: butt; stroke-dashoffset: 0; stroke-linejoin: miter; stroke-miterlimit: 4; fill: rgb(0,0,0); fill-rule: nonzero; opacity: 1;" vector-effect="non-scaling-stroke"  transform=" translate(-1879.58, -1010.04)" d="M 1849 1148 C 1845 1109 1845 883 1848 873 C 1853 858 1879 856 1898 869 C 1917 880 1919 1123 1900 1145 C 1885 1163 1850 1165 1849 1148 z" stroke-linecap="round" />
</g>
		<g transform="matrix(0.13 0 0 -0.13 108.23 92.35)"  >
<path style="stroke: none; stroke-width: 1; stroke-dasharray: none; stroke-linecap: butt; stroke-dashoffset: 0; stroke-linejoin: miter; stroke-miterlimit: 4; fill: rgb(0,0,0); fill-rule: nonzero; opacity: 1;" vector-effect="non-scaling-stroke"  transform=" translate(-2964.04, -1009.92)" d="M 2944 1149 C 2940 1142 2937 1078 2937 1007 C 2937 896 2939 875 2953 866 C 2985 846 2992 872 2991 1004 C 2990 1074 2987 1137 2984 1145 C 2977 1163 2954 1165 2944 1149 z" stroke-linecap="round" />
</g>
</g>
</g>
<g transform="matrix(0.14 0 0 0.2 616.65 197.29)" style="" id="eb473cd4-dc58-4738-ac87-1d69f001c1ed"  >
		<text xml:space="preserve" font-family="Alegreya" font-size="36" font-style="normal" font-weight="500" style="stroke: none; stroke-width: 1; stroke-dasharray: none; stroke-linecap: butt; stroke-dashoffset: 0; stroke-linejoin: miter; stroke-miterlimit: 4; fill: rgb(0,0,0); fill-rule: nonzero; opacity: 1; white-space: pre;" ><tspan x="-133.52" y="11.31" >A</tspan><tspan x="-106.8" y="11.31" >d</tspan><tspan x="-88.08" y="11.31" >m</tspan><tspan x="-59.36" y="11.31" >i</tspan><tspan x="-48.64" y="11.31" >n</tspan><tspan x="-29.92" y="11.31" style="white-space: pre; "> </tspan><tspan x="-20.2" y="11.31" >d</tspan><tspan x="-1.48" y="11.31" >a</tspan><tspan x="15.22" y="11.31" >s</tspan><tspan x="29.95" y="11.31" >h</tspan><tspan x="48.67" y="11.31" >b</tspan><tspan x="67.39" y="11.31" >o</tspan><tspan x="86.11" y="11.31" >a</tspan><tspan x="102.81" y="11.31" >r</tspan><tspan x="115.52" y="11.31" >d</tspan></text>
</g>
<g transform="matrix(0.43 0 0 0.41 324.89 240.61)" style="" id="e57bb4a5-eab4-4cab-bc25-a112d800514d"  >
		<text xml:space="preserve" font-family="Lato" font-size="31" font-style="normal" font-weight="700" style="stroke: none; stroke-width: 1; stroke-dasharray: none; stroke-linecap: butt; stroke-dashoffset: 0; stroke-linejoin: miter; stroke-miterlimit: 4; fill: rgb(0,0,0); fill-rule: nonzero; opacity: 1; white-space: pre;" ><tspan x="-115.56" y="9.74" >Dashboard Panel</tspan></text>
</g>
</svg>