<?xml version="1.0" standalone="no"?>
<!DOCTYPE svg PUBLIC "-//W3C//DTD SVG 20010904//EN"
 "http://www.w3.org/TR/2001/REC-SVG-20010904/DTD/svg10.dtd">
<svg version="1.0" xmlns="http://www.w3.org/2000/svg"
 width="866.000000pt" height="305.000000pt" viewBox="0 0 866.000000 305.000000"
 preserveAspectRatio="xMidYMid meet">

<g transform="translate(0.000000,305.000000) scale(0.100000,-0.100000)"
fill="#000000" stroke="none">
<path d="M1805 2540 c-10 -15 2 -28 39 -40 18 -6 38 -21 45 -33 13 -22 80 -71
88 -64 8 9 -49 82 -73 95 -13 7 -24 19 -24 26 0 24 -62 37 -75 16z"/>
<path d="M2255 2530 c3 -5 17 -10 31 -10 13 0 24 5 24 10 0 6 -14 10 -31 10
-17 0 -28 -4 -24 -10z"/>
<path d="M2115 2420 c-4 -6 7 -32 23 -58 23 -38 39 -51 78 -65 62 -23 81 -41
95 -88 18 -59 4 -104 -51 -161 l-49 -50 -75 4 c-70 3 -79 6 -109 36 -30 30
-32 37 -32 101 0 67 -1 70 -38 106 -53 51 -62 39 -62 -84 0 -95 1 -99 32 -137
46 -56 53 -62 98 -92 34 -23 51 -26 115 -27 68 0 79 3 120 32 97 68 130 124
130 220 0 76 -19 136 -55 175 -63 68 -199 122 -220 88z"/>
<path d="M1748 2361 c-12 -21 -34 -43 -50 -49 -20 -7 -30 -19 -34 -41 -4 -17
-13 -31 -20 -31 -22 0 -33 -34 -45 -139 -16 -134 0 -266 39 -329 15 -24 32
-45 37 -46 6 0 13 27 16 61 4 46 12 69 32 93 15 17 27 36 27 41 0 6 14 23 31
39 27 25 31 33 25 63 -3 19 -15 42 -25 51 -14 13 -20 38 -26 104 -4 48 -11 95
-17 105 -8 16 -6 18 23 15 28 -2 35 1 43 23 11 33 0 79 -19 79 -8 0 -24 -17
-37 -39z m-58 -217 c0 -30 -4 -54 -10 -54 -6 0 -10 27 -10 61 0 37 4 58 10 54
6 -3 10 -31 10 -61z"/>
<path d="M2697 2310 c-10 -25 -27 -131 -27 -167 0 -26 -5 -35 -24 -43 -19 -7
-27 -21 -37 -64 -11 -49 -15 -56 -36 -56 -22 0 -23 2 -12 23 14 26 21 218 8
238 -6 11 -13 11 -26 3 -13 -8 -18 -25 -19 -55 -2 -131 -3 -137 -34 -169 -16
-17 -32 -41 -36 -55 -3 -13 -15 -27 -26 -31 -10 -3 -24 -17 -30 -30 -6 -13
-17 -24 -24 -24 -7 0 -28 -13 -46 -29 -57 -50 -222 -63 -315 -26 -17 8 -42 11
-55 8 -27 -7 -58 -32 -58 -46 0 -6 -9 -21 -21 -33 -22 -23 -34 -93 -42 -238
-4 -70 -2 -81 18 -104 20 -24 25 -25 49 -14 26 12 26 12 20 92 -10 112 0 125
100 133 41 3 105 12 143 20 37 9 94 21 126 27 32 7 61 18 63 25 3 7 25 20 48
29 24 9 52 26 62 38 11 11 29 24 42 29 12 5 27 20 32 33 5 13 18 27 29 31 11
3 23 16 27 28 4 12 19 37 35 54 15 18 31 50 35 70 4 21 17 51 28 66 16 22 22
47 24 105 4 77 -10 161 -21 132z m-157 -370 c0 -11 -7 -20 -15 -20 -18 0 -19
12 -3 28 16 16 18 15 18 -8z"/>
<path d="M491 1151 c-16 -16 -18 -30 -13 -109 2 -52 0 -103 -6 -120 -9 -25 -7
-33 8 -47 26 -24 58 -11 68 28 12 46 37 46 61 -1 33 -64 99 -63 121 2 16 48
43 48 67 -1 20 -42 39 -50 68 -29 17 12 18 17 6 54 -10 29 -12 65 -7 123 6 69
4 85 -10 100 -22 24 -33 23 -66 -4 -18 -15 -31 -41 -43 -87 -18 -72 -34 -90
-81 -90 -40 0 -48 10 -68 90 -12 46 -25 71 -44 87 -33 27 -37 28 -61 4z"/>
<path d="M1038 1159 c-16 -6 -28 -14 -29 -17 0 -4 -1 -65 -2 -135 -2 -94 1
-132 11 -139 8 -7 38 -9 80 -5 37 4 84 3 104 -2 28 -7 40 -5 49 5 21 25 0 35
-65 28 -56 -6 -66 -4 -85 15 -41 41 -13 87 48 77 42 -6 66 5 58 28 -5 12 -20
16 -55 16 -74 0 -97 39 -46 79 22 17 35 20 84 14 60 -6 75 2 64 32 -5 13 -14
15 -48 9 -45 -9 -78 -9 -116 0 -14 3 -37 0 -52 -5z"/>
<path d="M1426 1149 c-13 -19 -16 -48 -16 -145 0 -156 -3 -153 143 -145 97 5
111 8 127 29 32 40 38 179 9 234 -12 23 -60 36 -160 44 -83 6 -87 6 -103 -17z
m174 -44 c16 -8 34 -24 40 -36 13 -23 16 -86 5 -118 -14 -45 -108 -67 -153
-35 -19 13 -22 24 -22 88 0 57 4 76 18 88 35 31 70 35 112 13z"/>
<path d="M2084 1160 c-12 -5 -25 -14 -29 -20 -10 -16 -11 -253 -1 -268 13 -21
45 -13 63 16 24 39 43 52 75 52 41 0 102 34 116 65 24 52 10 125 -27 145 -26
14 -169 21 -197 10z m141 -50 c30 -12 39 -31 31 -65 -16 -61 -91 -88 -120 -42
-27 42 -30 73 -7 96 23 23 55 27 96 11z"/>
<path d="M2557 1160 c-39 -12 -55 -27 -78 -71 -29 -59 -26 -127 10 -177 16
-22 35 -44 42 -48 7 -4 52 -7 101 -6 128 2 169 38 167 149 0 74 -18 113 -61
136 -43 21 -139 31 -181 17z m143 -67 c83 -74 23 -214 -83 -196 -69 11 -105
81 -78 153 27 74 104 94 161 43z"/>
<path d="M3150 1160 c-12 -7 -16 -39 -21 -137 -6 -134 0 -163 30 -163 31 0 46
26 32 56 -22 50 -5 101 30 90 8 -2 26 -7 41 -10 21 -5 30 -16 43 -56 18 -53
51 -80 97 -80 43 0 46 9 49 147 4 141 0 157 -42 151 -23 -3 -24 -6 -21 -65 2
-54 0 -63 -18 -73 -12 -6 -33 -10 -47 -8 -20 2 -29 12 -40 43 -15 44 -78 115
-103 115 -8 0 -22 -5 -30 -10z"/>
<path d="M3615 1162 c-16 -17 -2 -42 30 -52 49 -16 58 -38 54 -143 -3 -77 -2
-91 14 -101 12 -8 22 -8 35 0 15 10 17 24 13 108 -3 82 -1 100 14 116 10 11
24 20 30 20 7 0 18 7 25 15 24 29 -4 40 -111 41 -54 0 -101 -2 -104 -4z"/>
<path d="M1849 1148 c-4 -39 -4 -265 -1 -275 5 -15 31 -17 50 -4 19 11 21 254
2 276 -15 18 -50 20 -51 3z"/>
<path d="M2944 1149 c-4 -7 -7 -71 -7 -142 0 -111 2 -132 16 -141 32 -20 39 6
38 138 -1 70 -4 133 -7 141 -7 18 -30 20 -40 4z"/>
</g>
</svg>
